<svg xmlns="http://www.w3.org/2000/svg" width="383.3" height="124.88" viewBox="0 0 383.3 124.88">
  <g id="Ebene_2" data-name="Ebene 2">
    <g id="Ebene_1-2" data-name="Ebene 1">
      <g>
        <g>
          <path d="M11.24,102.81,15,114.69h.07L19,102.81h5.2v17H20.2v-4.21l.37-7.75-.07,0-4.09,12H13.75l-4-11.87H9.64l.37,7.65v4.21H6.06v-17Z"/>
          <path d="M30.68,104.25H26.73V101.6h3.95Zm0,15.54H26.73V107.17h3.95Z"/>
          <path d="M36.7,107.17l.15,1.77a4.47,4.47,0,0,1,1.53-1.47,4,4,0,0,1,2-.53,3.62,3.62,0,0,1,2.89,1.2A5.72,5.72,0,0,1,44.35,112v7.83H40.41V112a2.12,2.12,0,0,0-.45-1.53,1.8,1.8,0,0,0-1.33-.45,2.3,2.3,0,0,0-1,.2,2.07,2.07,0,0,0-.73.55v9.07H33V107.17Z"/>
          <path d="M50.6,104.25h-4V101.6h4Zm0,15.54h-4V107.17h4Z"/>
          <path d="M56.67,107.17l.13,1.67a4.21,4.21,0,0,1,1.5-1.41,4.25,4.25,0,0,1,2.07-.49,3.87,3.87,0,0,1,2,.51A3.08,3.08,0,0,1,63.68,109a4.24,4.24,0,0,1,1.5-1.53,4.12,4.12,0,0,1,2.14-.54,3.59,3.59,0,0,1,2.9,1.26,6.05,6.05,0,0,1,1,3.9v7.69h-4V112.1a2.76,2.76,0,0,0-.38-1.68,1.39,1.39,0,0,0-1.13-.45,2.43,2.43,0,0,0-1,.2,2.19,2.19,0,0,0-.74.57c0,.13,0,.25,0,.34s0,.2,0,.29v8.42H60.14V112.1a2.85,2.85,0,0,0-.37-1.68,1.43,1.43,0,0,0-1.16-.45,2.34,2.34,0,0,0-1,.2,2.19,2.19,0,0,0-.74.57v9.05H53V107.17Z"/>
          <path d="M80.75,119.77a3.75,3.75,0,0,1-.29-.67,6.82,6.82,0,0,1-.23-.77,4.42,4.42,0,0,1-1.35,1.24A3.75,3.75,0,0,1,77,120,4.11,4.11,0,0,1,74,119a3.57,3.57,0,0,1-1.12-2.76,3.36,3.36,0,0,1,1.4-2.9,7.29,7.29,0,0,1,4.27-1H80v-.9a1.83,1.83,0,0,0-.38-1.23,1.46,1.46,0,0,0-1.17-.43,1.42,1.42,0,0,0-1,.32,1.34,1.34,0,0,0-.33,1l-3.82,0,0-.07a3.3,3.3,0,0,1,1.44-2.88,6.43,6.43,0,0,1,4-1.16,5.9,5.9,0,0,1,3.78,1.16A4,4,0,0,1,84,111.44v4.76a9.92,9.92,0,0,0,.17,1.87,9.12,9.12,0,0,0,.51,1.72Zm-2.6-2.55a2.58,2.58,0,0,0,1.08-.23,2.32,2.32,0,0,0,.79-.61v-2h-1.4a1.76,1.76,0,0,0-1.36.46,1.61,1.61,0,0,0-.42,1.15,1.12,1.12,0,0,0,.36.87A1.37,1.37,0,0,0,78.15,117.22Z"/>
          <path d="M90.27,119.79h-4V101.6h4Z"/>
          <path d="M107.85,115.29a1.7,1.7,0,0,0-.6-1.39,7.43,7.43,0,0,0-2.13-1,16.68,16.68,0,0,1-4.77-2.17,4,4,0,0,1-1.55-3.36,4.06,4.06,0,0,1,1.85-3.45,8,8,0,0,1,4.69-1.31A7.11,7.11,0,0,1,110,104a4.43,4.43,0,0,1,1.75,3.73l0,.08h-3.82a2.17,2.17,0,0,0-.69-1.66,2.71,2.71,0,0,0-1.9-.63,3,3,0,0,0-1.86.52,1.6,1.6,0,0,0-.68,1.3,1.37,1.37,0,0,0,.68,1.19,13.76,13.76,0,0,0,2.56,1.13,11.87,11.87,0,0,1,4.36,2.12,4.34,4.34,0,0,1,1.46,3.46,4.11,4.11,0,0,1-1.74,3.51,7.76,7.76,0,0,1-4.63,1.26,8.61,8.61,0,0,1-5-1.45,4.62,4.62,0,0,1-2-4.18l0-.07h3.84a2.52,2.52,0,0,0,.79,2.1,3.82,3.82,0,0,0,2.4.63,2.9,2.9,0,0,0,1.83-.49A1.59,1.59,0,0,0,107.85,115.29Z"/>
          <path d="M118.58,104v3.13h2.13v2.73h-2.13v5.78a1.45,1.45,0,0,0,.27,1,1,1,0,0,0,.74.29,4.81,4.81,0,0,0,.59,0l.55-.09.28,2.91c-.43.1-.82.17-1.17.22a11.18,11.18,0,0,1-1.24.06,3.89,3.89,0,0,1-2.95-1,4.57,4.57,0,0,1-1-3.28V109.9h-1.77v-2.73h1.77V104Z"/>
          <path d="M129.72,119.77a4.64,4.64,0,0,1-.3-.67c-.08-.25-.16-.51-.22-.77a4.45,4.45,0,0,1-1.36,1.24,3.71,3.71,0,0,1-1.92.46,4.1,4.1,0,0,1-2.92-1,3.57,3.57,0,0,1-1.12-2.76,3.36,3.36,0,0,1,1.4-2.9,7.29,7.29,0,0,1,4.27-1H129v-.9a1.83,1.83,0,0,0-.38-1.23,1.46,1.46,0,0,0-1.17-.43,1.42,1.42,0,0,0-1,.32,1.34,1.34,0,0,0-.33,1l-3.82,0,0-.07a3.29,3.29,0,0,1,1.43-2.88,6.45,6.45,0,0,1,4-1.16,5.91,5.91,0,0,1,3.79,1.16,4,4,0,0,1,1.45,3.34v4.76a9.92,9.92,0,0,0,.17,1.87,9.12,9.12,0,0,0,.51,1.72Zm-2.6-2.55a2.5,2.5,0,0,0,1.07-.23,2.27,2.27,0,0,0,.8-.61v-2h-1.4a1.76,1.76,0,0,0-1.36.46,1.62,1.62,0,0,0-.43,1.15,1.13,1.13,0,0,0,.37.87A1.37,1.37,0,0,0,127.12,117.22Z"/>
          <path d="M139.67,104v3.13h2.13v2.73h-2.13v5.78a1.45,1.45,0,0,0,.27,1,1,1,0,0,0,.74.29,4.89,4.89,0,0,0,.59,0l.55-.09.28,2.91c-.43.1-.83.17-1.18.22a11,11,0,0,1-1.23.06,3.89,3.89,0,0,1-2.95-1,4.57,4.57,0,0,1-1-3.28V109.9H134v-2.73h1.78V104Z"/>
          <path d="M149,120a5.84,5.84,0,0,1-4.45-1.75,6.08,6.08,0,0,1-1.66-4.38v-.44a7.14,7.14,0,0,1,1.51-4.71,6,6,0,0,1,8.34-.27,5.81,5.81,0,0,1,1.46,4.17v2.06H147l0,.08a2.58,2.58,0,0,0,.79,1.59,2.51,2.51,0,0,0,1.77.62,7.67,7.67,0,0,0,1.79-.17,13.05,13.05,0,0,0,1.7-.61l.93,2.4a7.23,7.23,0,0,1-2.14,1A9.45,9.45,0,0,1,149,120ZM148.74,110a1.44,1.44,0,0,0-1.28.61,3.3,3.3,0,0,0-.52,1.62l0,0h3.39V112a2.34,2.34,0,0,0-.4-1.47A1.45,1.45,0,0,0,148.74,110Z"/>
          <path d="M167.22,102.81l3.8,11.88h.07l3.84-11.88h5.2v17h-3.95v-4.21l.37-7.75-.07,0-4.09,12h-2.66l-4-11.87h-.07l.37,7.65v4.21h-4v-17Z"/>
          <path d="M189.88,119.77a4.64,4.64,0,0,1-.3-.67,6.82,6.82,0,0,1-.23-.77,4.31,4.31,0,0,1-1.35,1.24,3.74,3.74,0,0,1-1.92.46,4.12,4.12,0,0,1-2.93-1,3.57,3.57,0,0,1-1.12-2.76,3.39,3.39,0,0,1,1.4-2.9,7.32,7.32,0,0,1,4.28-1h1.43v-.9a1.78,1.78,0,0,0-.38-1.23,1.46,1.46,0,0,0-1.17-.43,1.42,1.42,0,0,0-1,.32,1.34,1.34,0,0,0-.33,1l-3.81,0,0-.07a3.3,3.3,0,0,1,1.44-2.88,6.45,6.45,0,0,1,4-1.16,5.9,5.9,0,0,1,3.78,1.16,4,4,0,0,1,1.45,3.34v4.76a9.31,9.31,0,0,0,.68,3.59Zm-2.6-2.55a2.57,2.57,0,0,0,1.07-.23,2.23,2.23,0,0,0,.79-.61v-2h-1.4a1.78,1.78,0,0,0-1.36.46A1.61,1.61,0,0,0,186,116a1.1,1.1,0,0,0,.37.87A1.36,1.36,0,0,0,187.28,117.22Z"/>
          <path d="M199,107.17l.15,1.77a4.47,4.47,0,0,1,1.53-1.47,4,4,0,0,1,2-.53,3.62,3.62,0,0,1,2.89,1.2,5.72,5.72,0,0,1,1.05,3.82v7.83h-3.94V112a2.12,2.12,0,0,0-.45-1.53,1.8,1.8,0,0,0-1.33-.45,2.3,2.3,0,0,0-1,.2,2.07,2.07,0,0,0-.73.55v9.07H195.3V107.17Z"/>
          <path d="M216.09,119.77a4.64,4.64,0,0,1-.3-.67,6.82,6.82,0,0,1-.23-.77,4.31,4.31,0,0,1-1.35,1.24,3.74,3.74,0,0,1-1.92.46,4.1,4.1,0,0,1-2.92-1,3.57,3.57,0,0,1-1.13-2.76,3.37,3.37,0,0,1,1.41-2.9,7.27,7.27,0,0,1,4.27-1h1.43v-.9a1.78,1.78,0,0,0-.38-1.23,1.46,1.46,0,0,0-1.17-.43,1.42,1.42,0,0,0-1,.32,1.34,1.34,0,0,0-.33,1l-3.81,0,0-.07a3.27,3.27,0,0,1,1.43-2.88,6.45,6.45,0,0,1,4-1.16,5.88,5.88,0,0,1,3.78,1.16,4,4,0,0,1,1.45,3.34v4.76a9.92,9.92,0,0,0,.17,1.87,10.89,10.89,0,0,0,.51,1.72Zm-2.6-2.55a2.54,2.54,0,0,0,1.07-.23,2.23,2.23,0,0,0,.79-.61v-2H214a1.78,1.78,0,0,0-1.36.46,1.61,1.61,0,0,0-.42,1.15,1.1,1.1,0,0,0,.37.87A1.36,1.36,0,0,0,213.49,117.22Z"/>
          <path d="M220.94,113.5a8.07,8.07,0,0,1,1.28-4.75,4.19,4.19,0,0,1,3.63-1.81,3.28,3.28,0,0,1,1.76.47,4.14,4.14,0,0,1,1.31,1.35l.26-1.59h3.46V119.3a5.13,5.13,0,0,1-1.74,4,6.83,6.83,0,0,1-4.68,1.53,8.44,8.44,0,0,1-2.05-.27,11.74,11.74,0,0,1-2-.72l.64-2.91a10.63,10.63,0,0,0,1.65.55,7.93,7.93,0,0,0,1.78.18,2.48,2.48,0,0,0,1.85-.65,2.44,2.44,0,0,0,.65-1.79v-.64a3.76,3.76,0,0,1-1.25,1.05,3.7,3.7,0,0,1-1.62.35,4.22,4.22,0,0,1-3.61-1.72,7.49,7.49,0,0,1-1.28-4.56Zm3.93.25a5.21,5.21,0,0,0,.45,2.39,1.57,1.57,0,0,0,1.51.86,2.81,2.81,0,0,0,1.1-.2,1.88,1.88,0,0,0,.77-.6v-5.3a2.19,2.19,0,0,0-.76-.69,2.31,2.31,0,0,0-1.09-.24,1.56,1.56,0,0,0-1.51,1,5.94,5.94,0,0,0-.47,2.56Z"/>
          <path d="M240.57,120a5.84,5.84,0,0,1-4.45-1.75,6.12,6.12,0,0,1-1.66-4.38v-.44a7.19,7.19,0,0,1,1.51-4.71,6,6,0,0,1,8.34-.27,5.81,5.81,0,0,1,1.46,4.17v2.06h-7.2l0,.08a2.59,2.59,0,0,0,.8,1.59,2.5,2.5,0,0,0,1.77.62,7.79,7.79,0,0,0,1.79-.17,13.54,13.54,0,0,0,1.69-.61l.94,2.4a7.48,7.48,0,0,1-2.14,1A9.56,9.56,0,0,1,240.57,120ZM240.29,110a1.46,1.46,0,0,0-1.28.61,3.3,3.3,0,0,0-.51,1.62l0,0h3.39V112a2.4,2.4,0,0,0-.39-1.47A1.48,1.48,0,0,0,240.29,110Z"/>
          <path d="M251.26,107.17l.14,1.67a4.06,4.06,0,0,1,3.57-1.9,3.87,3.87,0,0,1,2,.51,3.13,3.13,0,0,1,1.28,1.56,4.24,4.24,0,0,1,1.5-1.53,4.12,4.12,0,0,1,2.14-.54,3.59,3.59,0,0,1,2.9,1.26,6.05,6.05,0,0,1,1.05,3.9v7.69h-3.95V112.1a2.76,2.76,0,0,0-.38-1.68,1.4,1.4,0,0,0-1.14-.45,2.41,2.41,0,0,0-1,.2,2.1,2.1,0,0,0-.74.57c0,.13,0,.25,0,.34s0,.2,0,.29v8.42h-3.94V112.1a2.85,2.85,0,0,0-.37-1.68,1.43,1.43,0,0,0-1.16-.45,2.34,2.34,0,0,0-1,.2,2.19,2.19,0,0,0-.74.57v9.05h-3.94V107.17Z"/>
          <path d="M273.73,120a5.84,5.84,0,0,1-4.45-1.75,6.08,6.08,0,0,1-1.66-4.38v-.44a7.14,7.14,0,0,1,1.51-4.71,6,6,0,0,1,8.34-.27,5.81,5.81,0,0,1,1.46,4.17v2.06h-7.21l0,.08a2.58,2.58,0,0,0,.79,1.59,2.5,2.5,0,0,0,1.77.62,7.73,7.73,0,0,0,1.79-.17,13.6,13.6,0,0,0,1.7-.61l.93,2.4a7.23,7.23,0,0,1-2.14,1A9.45,9.45,0,0,1,273.73,120ZM273.45,110a1.44,1.44,0,0,0-1.28.61,3.3,3.3,0,0,0-.52,1.62l0,0h3.39V112a2.34,2.34,0,0,0-.4-1.47A1.45,1.45,0,0,0,273.45,110Z"/>
          <path d="M284.38,107.17l.15,1.77a4.53,4.53,0,0,1,1.52-1.47,4,4,0,0,1,2-.53,3.64,3.64,0,0,1,2.9,1.2,5.72,5.72,0,0,1,1,3.82v7.83h-3.94V112a2.12,2.12,0,0,0-.45-1.53,1.77,1.77,0,0,0-1.32-.45,2.3,2.3,0,0,0-1,.2,2,2,0,0,0-.73.55v9.07h-3.93V107.17Z"/>
          <path d="M298.73,104v3.13h2.13v2.73h-2.13v5.78a1.45,1.45,0,0,0,.27,1,1,1,0,0,0,.74.29,4.81,4.81,0,0,0,.59,0l.56-.09.28,2.91c-.44.1-.83.17-1.18.22a11.05,11.05,0,0,1-1.24.06,3.89,3.89,0,0,1-2.95-1,4.57,4.57,0,0,1-1-3.28V109.9H293v-2.73h1.77V104Z"/>
          <path d="M312.82,116.75h7.31v3H308.87v-17h3.95Z"/>
          <path d="M325.59,104.25h-4V101.6h4Zm0,15.54h-4V107.17h4Z"/>
          <path d="M339.63,113.75a7.6,7.6,0,0,1-1.24,4.58,4.23,4.23,0,0,1-3.66,1.7,3.55,3.55,0,0,1-1.81-.45,3.9,3.9,0,0,1-1.3-1.29l-.26,1.5H328V101.6h3.94v6.8a3.74,3.74,0,0,1,1.21-1.08,3.36,3.36,0,0,1,1.61-.38,4.2,4.2,0,0,1,3.68,1.78,8.28,8.28,0,0,1,1.24,4.78Zm-3.93-.25a6.42,6.42,0,0,0-.42-2.6,1.56,1.56,0,0,0-1.56-.93,2.39,2.39,0,0,0-1.11.24,1.77,1.77,0,0,0-.72.69v5.3a1.65,1.65,0,0,0,.73.6,2.84,2.84,0,0,0,1.12.2,1.56,1.56,0,0,0,1.56-.81,5.7,5.7,0,0,0,.4-2.44Z"/>
          <path d="M348.55,110.65l-1.44,0a2.33,2.33,0,0,0-1.1.23,1.46,1.46,0,0,0-.65.65v8.28h-3.94V107.17h3.71l.14,1.86a3.69,3.69,0,0,1,1.05-1.54,2.28,2.28,0,0,1,1.53-.55,3.82,3.82,0,0,1,.57,0,5.13,5.13,0,0,1,.51.1Z"/>
          <path d="M357.3,119.77a6.11,6.11,0,0,1-.29-.67,6.82,6.82,0,0,1-.23-.77,4.31,4.31,0,0,1-1.35,1.24,3.75,3.75,0,0,1-1.93.46,4.11,4.11,0,0,1-2.92-1,3.57,3.57,0,0,1-1.12-2.76,3.39,3.39,0,0,1,1.4-2.9,7.3,7.3,0,0,1,4.28-1h1.43v-.9a1.83,1.83,0,0,0-.38-1.23,1.46,1.46,0,0,0-1.17-.43,1.42,1.42,0,0,0-1,.32,1.34,1.34,0,0,0-.33,1l-3.81,0,0-.07a3.3,3.3,0,0,1,1.44-2.88,6.43,6.43,0,0,1,4-1.16,5.9,5.9,0,0,1,3.78,1.16,4,4,0,0,1,1.45,3.34v4.76a9.92,9.92,0,0,0,.17,1.87,9.12,9.12,0,0,0,.51,1.72Zm-2.6-2.55a2.58,2.58,0,0,0,1.08-.23,2.32,2.32,0,0,0,.79-.61v-2h-1.4a1.78,1.78,0,0,0-1.36.46,1.61,1.61,0,0,0-.42,1.15,1.12,1.12,0,0,0,.36.87A1.39,1.39,0,0,0,354.7,117.22Z"/>
          <path d="M369.89,110.65l-1.43,0a2.35,2.35,0,0,0-1.11.23,1.44,1.44,0,0,0-.64.65v8.28h-3.94V107.17h3.7l.14,1.86a3.89,3.89,0,0,1,1.05-1.54,2.3,2.3,0,0,1,1.53-.55,3.64,3.64,0,0,1,.57,0,4.62,4.62,0,0,1,.51.1Z"/>
          <path d="M376.94,114.23v.09H377l2.09-7.15h4.19l-5,14.49a6.9,6.9,0,0,1-1.5,2.31,4,4,0,0,1-2.93.91,4.84,4.84,0,0,1-.84-.06c-.22,0-.56-.12-1-.24l.48-2.8.25,0,.21,0a2.53,2.53,0,0,0,1.36-.28,1.62,1.62,0,0,0,.64-.82l.32-.82-4.36-12.76h4.18Z"/>
        </g>
        <g>
          <path d="M133.73,53.48H119.32V82.1H106.39V7.69h26.16q12.88,0,19.88,5.78t7,16.73a21,21,0,0,1-3.6,12.5,22.94,22.94,0,0,1-10,7.75l16.71,31v.67H148.65ZM119.32,43.05h13.29q6.54,0,10.22-3.29a11.52,11.52,0,0,0,3.68-9q0-6-3.4-9.25T133,18.12H119.32Z"/>
          <path d="M194.38,83.12q-11.81,0-19.14-7.44t-7.33-19.8V54.35a33.21,33.21,0,0,1,3.19-14.8,24.33,24.33,0,0,1,9-10.14A23.7,23.7,0,0,1,193,25.78q11.28,0,17.45,7.21t6.15,20.39v5H180.43Q181,65.24,185,69.22a13.75,13.75,0,0,0,10.09,4A16.82,16.82,0,0,0,209,66.3l6.7,6.39a22.32,22.32,0,0,1-8.87,7.69A27.66,27.66,0,0,1,194.38,83.12Zm-1.49-47.37a10.48,10.48,0,0,0-8.25,3.57q-3.13,3.59-4,10h23.66v-.92q-.4-6.24-3.32-9.43A10.37,10.37,0,0,0,192.89,35.75Z"/>
          <path d="M249.61,73.2a11.25,11.25,0,0,0,7.72-2.7,9.3,9.3,0,0,0,3.27-6.7h11.7a18.18,18.18,0,0,1-3.22,9.63,21.14,21.14,0,0,1-8.17,7.08,24.35,24.35,0,0,1-11.14,2.61q-11.61,0-18.4-7.51t-6.8-20.75V53.58q0-12.61,6.75-20.21t18.4-7.59q9.86,0,16.07,5.75t6.51,15.1H260.6a11.43,11.43,0,0,0-3.24-7.82,10.47,10.47,0,0,0-7.75-3.06,10.91,10.91,0,0,0-9.3,4.37Q237,44.49,237,53.38v2q0,9,3.25,13.41T249.61,73.2Z"/>
          <path d="M280,53.94a32.66,32.66,0,0,1,3.22-14.64,23.52,23.52,0,0,1,9.05-10,25.49,25.49,0,0,1,13.39-3.5q11.19,0,18.16,7.21t7.54,19.11l.05,2.91a33,33,0,0,1-3.14,14.62,23.28,23.28,0,0,1-9,10,25.66,25.66,0,0,1-13.51,3.53q-11.7,0-18.73-7.8t-7-20.77ZM292.38,55q0,8.54,3.53,13.36a11.46,11.46,0,0,0,9.81,4.83,11.32,11.32,0,0,0,9.78-4.9Q319,63.4,319,53.94q0-8.38-3.6-13.29A12.14,12.14,0,0,0,296,40.58C293.57,43.79,292.38,48.61,292.38,55Z"/>
          <path d="M341.5,12.44a6.63,6.63,0,0,1,1.81-4.75,8.1,8.1,0,0,1,10.4,0,6.53,6.53,0,0,1,1.84,4.75,6.37,6.37,0,0,1-1.84,4.68,8.2,8.2,0,0,1-10.4,0A6.47,6.47,0,0,1,341.5,12.44ZM354.69,82.1H342.27V26.8h12.42Z"/>
          <path d="M381.11,82.1H368.69V3.6h12.42Z"/>
        </g>
        <g>
          <g>
            <rect x="54.51" y="-8.9" width="14.85" height="75.61" rx="7.43" transform="translate(-2.3 52.26) rotate(-45)"/>
            <rect x="37.99" y="7.62" width="14.85" height="75.61" rx="7.43" transform="translate(-18.81 45.42) rotate(-45)"/>
            <rect x="21.48" y="24.13" width="14.85" height="75.61" rx="7.43" transform="translate(-35.33 38.58) rotate(-45)"/>
          </g>
          <path d="M81.55,14.34a7.41,7.41,0,0,0-14.39-2.51L81.55,26.21Z"/>
          <path d="M6.81,62.34V74.71a7.4,7.4,0,0,0,14.5,2.14Z"/>
        </g>
      </g>
    </g>
  </g>
</svg>
